<svg width="220" height="46" viewBox="0 0 220 46" fill="none" xmlns="http://www.w3.org/2000/svg">
<path d="M6.83105 15.1624C7.50344 14.5338 8.16431 13.8922 8.85129 13.2799C9.6098 12.6039 10.3809 11.941 11.167 11.2974C12.2344 10.4236 13.328 9.58184 14.3976 8.71066C15.2712 7.9991 16.1261 7.26455 17.068 6.53143C17.162 6.47647 17.1774 6.43028 17.1927 6.38408C17.1927 6.38408 17.1941 6.39255 17.2335 6.40288C17.2839 6.36512 17.2951 6.31703 17.3062 6.26894C17.3062 6.26894 17.3119 6.27866 17.3289 6.30633C17.4785 6.28583 17.6112 6.23765 17.7808 6.21924C18.0154 6.32282 18.2111 6.4024 18.411 6.46962C25.1888 8.74878 30.7686 12.7168 35.1268 18.3824C38.5792 22.8704 40.8065 27.9078 41.7973 33.4905C42.2243 35.896 42.3832 38.3185 42.305 40.7683C38.7858 40.7766 35.3208 40.7734 31.8564 40.7173C31.811 39.3229 31.877 37.9657 31.6901 36.6443C31.4716 35.0997 31.108 33.5643 30.6711 32.0647C30.0453 29.9166 29.034 27.9263 27.7916 26.0678C26.3116 23.8538 24.4964 21.9461 22.3994 20.2974C20.064 18.4611 17.4687 17.1223 14.6487 16.2346C12.111 15.4357 9.49782 15.0759 6.83105 15.1624Z" fill="#3170A6"/>
<path d="M42.3591 40.7568C42.3832 38.3183 42.2243 35.8959 41.7974 33.4903C40.8065 27.9077 38.5792 22.8702 35.1268 18.3822C30.7687 12.7167 25.1888 8.74862 18.4111 6.46946C18.2112 6.40223 18.0154 6.32266 17.8052 6.19501C17.9775 5.91431 18.1624 5.68746 18.3472 5.46059C18.3472 5.46059 18.3487 5.46898 18.3792 5.4662C18.4274 5.42406 18.4452 5.38469 18.463 5.34532C18.463 5.34532 18.4639 5.35384 18.4986 5.35897C18.6483 5.25549 18.7633 5.14689 18.8782 5.03829C19.3495 4.67086 19.8208 4.30343 20.3521 3.89425C20.6089 3.65777 20.8056 3.46303 21.0022 3.26829C21.0022 3.26829 21.0032 3.27674 21.0409 3.28373C21.2451 3.12814 21.4115 2.96555 21.5779 2.80296C21.5779 2.80296 21.5808 2.81219 21.6107 2.81058C21.6587 2.77004 21.6768 2.7311 21.6949 2.69216C21.6949 2.69216 21.6957 2.70057 21.732 2.71007C21.8701 2.63913 21.972 2.5587 22.0739 2.47826C23.0843 1.52908 24.0901 0.573473 25.5073 0.0514588C26.6586 -0.0993243 27.6621 0.090072 28.6321 0.50421C28.6321 0.50421 28.6243 0.506932 28.6288 0.543619C28.7487 0.631697 28.8641 0.683089 28.9795 0.73448C28.9795 0.73448 28.9709 0.736308 28.9717 0.761453C29.0034 0.808527 29.0343 0.830452 29.0652 0.852381C30.0182 1.62794 30.9719 2.4027 31.9218 3.18213C31.958 3.21187 31.9573 3.28662 32.0117 3.38788C32.0907 3.44566 32.1319 3.45596 32.1732 3.46626C32.2179 3.49896 32.2625 3.53165 32.3341 3.63606C32.5293 3.82047 32.6976 3.93316 32.866 4.04585C32.9108 4.07841 32.9557 4.11098 33.0304 4.19063C33.0742 4.25264 33.0887 4.26717 33.1035 4.28132C33.1035 4.28132 33.143 4.29814 33.1589 4.34969C33.3001 4.46997 33.4254 4.5387 33.5507 4.60743C33.5507 4.60743 33.598 4.63738 33.6182 4.69356C33.7639 4.82153 33.8894 4.89332 34.0148 4.96511C34.0614 4.99932 34.108 5.03353 34.1856 5.11492C34.2167 5.1621 34.2566 5.20306 34.2566 5.20306C34.2566 5.20306 34.297 5.222 34.3144 5.27591C34.5394 5.48254 34.7471 5.63527 34.9548 5.78799C34.9548 5.78799 34.9931 5.80083 35.008 5.85143C35.1492 5.9738 35.2756 6.04555 35.402 6.11731C35.4474 6.1512 35.4929 6.18509 35.5679 6.28964C35.6996 6.4075 35.8018 6.4547 35.9041 6.50191C35.9041 6.50191 35.8939 6.50767 35.9075 6.54064C36.0746 6.74304 36.2105 6.93382 36.3847 7.07841C37.4312 7.94693 38.4789 8.8144 39.5414 9.66316C40.3459 10.3058 41.1732 10.92 41.9903 11.5469C41.9903 11.5469 42.0346 11.5716 42.0537 11.6206C42.1575 11.7027 42.2423 11.7359 42.327 11.769C42.3443 11.78 42.3616 11.7909 42.4004 11.8586C42.5829 12.0219 42.744 12.1286 42.905 12.2353C42.9497 12.2683 42.9945 12.3013 43.0683 12.3845C43.111 12.4527 43.1281 12.4668 43.1484 12.4769C43.1484 12.4769 43.1881 12.4949 43.2031 12.5451C43.3452 12.7044 43.4723 12.8134 43.5995 12.9224C44.0837 13.2807 44.5679 13.639 45.1032 14.0378C45.1866 14.0995 45.221 14.1157 45.2577 14.127C45.2577 14.127 45.2427 14.1258 45.2521 14.1579C45.3738 14.2447 45.4861 14.2995 45.5984 14.3542C45.5984 14.3542 45.5903 14.3563 45.5932 14.3867C45.6357 14.4351 45.6752 14.4531 45.7147 14.471C45.7147 14.471 45.7056 14.4725 45.7131 14.4995C45.7569 14.547 45.7932 14.5675 45.8296 14.5881C45.8296 14.5881 45.8206 14.5871 45.823 14.6181C45.8654 14.6664 45.9053 14.6839 45.9452 14.7013C45.9452 14.7013 45.9368 14.7028 45.9325 14.7416C46.7307 15.9758 46.757 17.3192 46.7516 18.6976C46.7272 25.0324 46.7402 31.3673 46.7398 37.7023C46.7398 37.7023 46.7455 37.7408 46.7061 37.7888C46.6554 37.9771 46.6442 38.1175 46.633 38.2578C46.633 38.2578 46.629 38.2506 46.5954 38.2676C46.5471 38.3915 46.5323 38.4985 46.5175 38.6055C46.5175 38.6055 46.5139 38.5977 46.478 38.6138C46.424 38.7131 46.4059 38.7962 46.3879 38.8793C46.3879 38.8793 46.3947 38.8843 46.3558 38.9035C46.3063 38.9705 46.2958 39.0184 46.2853 39.0663C46.2853 39.0663 46.2823 39.0587 46.2513 39.0665C46.1984 39.1163 46.1764 39.1583 46.1544 39.2003C45.8965 39.4692 45.6386 39.7382 45.3187 40.0443C45.1764 40.1667 45.0961 40.2518 45.0158 40.3369C45.0158 40.3369 45.0123 40.3288 44.9714 40.3212C44.1001 40.6162 43.2655 40.8945 42.3591 40.7568Z" fill="#53DEF6"/>
<path d="M6.82284 15.205C9.49798 15.0756 12.1112 15.4354 14.6489 16.2342C17.4688 17.122 20.0641 18.4608 22.3996 20.297C24.4965 21.9458 26.3117 23.8535 27.7918 26.0675C29.0342 27.926 30.0454 29.9163 30.6712 32.0643C31.1081 33.564 31.4717 35.0994 31.6902 36.644C31.8772 37.9654 31.8112 39.3226 31.8027 40.7261C27.9491 40.7882 24.1499 40.7882 20.3247 40.7882C20.3247 40.4911 20.3422 40.2449 20.3215 40.002C20.2488 39.1476 20.1631 38.2943 20.0823 37.4406C19.8435 36.6524 19.6408 35.8509 19.3554 35.08C19.0915 34.3674 18.8168 33.6377 18.4095 33.0038C17.5533 31.6717 16.6018 30.4286 15.303 29.4434C14.0929 28.5255 12.8192 27.7875 11.4014 27.2774C11.1186 27.1757 10.8263 27.1006 10.4937 26.9392C9.09863 26.6713 7.74825 26.4774 6.35742 26.2777C6.35742 23.0705 6.35742 19.7582 6.35742 16.4459C6.50978 16.0466 6.66212 15.6472 6.82284 15.205Z" fill="#244082"/>
<ellipse cx="7.38648" cy="38.0181" rx="7.38648" ry="7.38647" fill="#1A1D66"/>
<path d="M89.8617 22.5607C88.7653 19.4988 87.6753 16.4782 86.571 13.4182C87.3051 13.2934 87.9353 13.5304 88.5286 13.8413C89.4622 14.3306 90.1415 15.074 90.5006 16.0759C91.0475 17.602 91.5773 19.1342 92.152 20.771C92.394 20.1161 92.6043 19.5501 92.8122 18.9832C93.3356 17.5566 93.8525 16.1277 94.3825 14.7035C94.7216 13.7925 95.3223 13.3726 96.2381 13.3765C97.093 13.3801 97.7315 13.8387 98.0432 14.7141C98.7458 16.6871 99.4349 18.6649 100.172 20.7608C100.276 20.5021 100.348 20.3393 100.408 20.1721C100.908 18.7772 101.397 17.3782 101.907 15.9869C102.491 14.3919 104.014 13.3375 105.665 13.4015C105.171 14.7717 104.685 16.128 104.195 17.4832C103.423 19.619 102.642 21.7515 101.883 23.892C101.76 24.2375 101.612 24.3954 101.217 24.3743C100.498 24.3359 99.7739 24.3361 99.0548 24.3747C98.6778 24.3949 98.5399 24.2419 98.4261 23.9201C97.727 21.9435 97.0109 19.9729 96.3 18.0004C96.259 17.8868 96.2141 17.7745 96.1339 17.5643C95.2728 19.8696 94.4419 22.0942 93.5945 24.3631C92.6619 24.3631 91.7143 24.3734 90.7675 24.3503C90.6447 24.3474 90.4686 24.1964 90.4158 24.0721C90.2116 23.5913 90.0473 23.0935 89.8617 22.5607Z" fill="#1A1D66"/>
<path d="M56.0271 16.4143C57.2721 13.6797 60.6086 12.5257 63.5741 13.5462C66.2022 14.4506 67.547 17.2649 66.9935 19.7503C64.2809 19.7503 61.5606 19.7503 58.7622 19.7503C58.944 20.6273 59.399 21.257 60.1547 21.5807C61.7528 22.2653 63.2677 22.0898 64.6377 20.9381C65.2682 21.4351 65.6078 22.056 65.4544 22.8541C65.3054 23.6296 64.7462 24.0347 64.0196 24.2248C62.1292 24.7192 60.2674 24.6801 58.4951 23.7906C55.8327 22.4544 54.8239 19.4375 56.0271 16.4143ZM62.1285 15.7073C60.5888 15.2456 58.8088 16.302 58.7556 17.8973C60.5264 17.8973 62.2967 17.8973 64.1122 17.8973C63.8923 16.7775 63.2993 16.0351 62.1285 15.7073Z" fill="#1A1D66"/>
<path d="M77.3267 21.1257C78.431 21.6195 79.5417 22.0484 80.7516 22.0889C81.3049 22.1074 81.8675 22.0412 82.416 21.9526C82.8665 21.8798 83.1953 21.5975 83.1963 21.1008C83.1973 20.6198 82.8106 20.4484 82.432 20.3698C81.4431 20.1643 80.4437 20.0093 79.4521 19.8156C79.1286 19.7524 78.8106 19.6475 78.4998 19.535C77.4471 19.1541 76.7262 18.4507 76.5744 17.3135C76.4098 16.0799 76.7716 15.0092 77.8117 14.2565C79.2092 13.2452 80.8142 13.0931 82.4698 13.215C82.9045 13.247 83.337 13.3198 83.7682 13.3881C84.9474 13.5749 85.5642 14.6803 85.1091 15.7849C85.0297 15.9776 84.9388 16.1657 84.8784 16.2998C84.0359 16.0775 83.2308 15.7756 82.4012 15.6741C81.726 15.5915 81.0152 15.7085 80.3323 15.8149C79.9135 15.8802 79.6079 16.1741 79.6137 16.6578C79.6191 17.1161 79.9541 17.3082 80.3213 17.39C81.2222 17.5909 82.1378 17.7265 83.0372 17.933C83.5938 18.0608 84.1534 18.2209 84.674 18.4517C86.6794 19.3407 86.561 21.8405 85.5438 22.9556C84.701 23.8796 83.6138 24.2845 82.4366 24.444C81.2172 24.6092 79.9999 24.4775 78.7738 24.3102C77.3162 24.1113 76.3934 22.6659 77.3267 21.1257Z" fill="#1A1D66"/>
<path d="M113.726 16.1314C113.179 16.0845 112.633 16.0375 112.052 15.9876C112.052 15.2317 112.052 14.4495 112.052 13.6193C112.575 13.6193 113.111 13.6193 113.644 13.6193C113.719 13.0043 113.732 12.4224 113.868 11.8711C114.335 9.98453 115.823 8.98413 118.041 9.03479C118.458 9.04433 118.881 9.08691 119.29 9.16957C119.944 9.30194 120.269 9.87394 120.072 10.5194C119.934 10.9707 119.761 11.4111 119.591 11.8912C118.84 11.5502 118.068 11.296 117.329 11.8453C116.756 12.2712 116.858 12.928 116.858 13.5895C117.777 13.5895 118.682 13.5895 119.612 13.5895C119.612 14.4212 119.612 15.2021 119.612 16.0628C118.711 16.0628 117.821 16.0628 116.873 16.1302C116.8 16.3886 116.775 16.5796 116.775 16.7706C116.772 18.8248 116.773 20.879 116.773 22.9332C116.773 23.3241 116.773 23.7149 116.773 24.1541C116.077 24.1541 115.466 24.1541 114.855 24.1541C113.894 24.1541 113.914 24.1542 113.919 23.2423C113.931 21.0126 113.927 18.7828 113.915 16.5531C113.914 16.4122 113.792 16.2719 113.726 16.1314Z" fill="#191C66"/>
<path d="M122.279 21.4547C122.273 19.636 122.273 17.8642 122.273 16.0526C121.658 16.0526 121.137 16.0526 120.58 16.0526C120.58 15.2319 120.58 14.45 120.58 13.615C121.096 13.615 121.633 13.615 122.217 13.615C122.217 12.7105 122.217 11.8567 122.217 10.9736C123.294 10.9736 124.325 10.9736 125.4 10.9736C125.4 11.8168 125.4 12.671 125.4 13.5711C126.328 13.5711 127.216 13.5711 128.139 13.5711C128.139 14.3979 128.139 15.1796 128.139 16.0125C127.272 16.0125 126.386 16.0125 125.426 16.0125C125.426 16.5105 125.426 16.9596 125.426 17.4088C125.426 18.3761 125.426 19.3434 125.425 20.3108C125.425 21.7702 126.414 22.3947 127.748 21.7761C127.842 21.7323 127.931 21.6767 128.088 21.5911C128.262 22.0692 128.485 22.5236 128.589 23.0038C128.736 23.6896 128.362 24.196 127.679 24.366C126.706 24.6084 125.725 24.5972 124.769 24.3299C123.345 23.9316 122.529 22.9574 122.279 21.4547Z" fill="#191C66"/>
<path d="M72.1207 17.3042C73.0476 17.3042 73.9216 17.3042 74.8224 17.3042C74.8224 18.1753 74.8224 18.995 74.8224 19.8605C72.924 19.8605 71.0215 19.8605 69.084 19.8605C69.084 19.0349 69.084 18.2017 69.084 17.3042C70.0774 17.3042 71.0727 17.3042 72.1207 17.3042Z" fill="#1A1D66"/>
<path d="M109.754 8.44566C110.804 9.07193 111.067 10.1299 110.432 11.0438C109.832 11.9072 108.328 12.1013 107.47 11.4261C106.668 10.7949 106.527 9.65202 107.201 8.91492C107.906 8.14452 108.793 8.14846 109.754 8.44566Z" fill="#1A1D66"/>
<path d="M108.439 24.1555C107.13 24.1468 107.275 24.294 107.274 23.019C107.269 20.067 107.272 17.1149 107.273 14.1629C107.273 13.495 107.276 13.4929 107.956 13.4917C108.536 13.4906 109.116 13.5056 109.695 13.4867C110.069 13.4745 110.236 13.5952 110.235 13.996C110.225 17.2116 110.225 20.4273 110.235 23.6429C110.236 24.0364 110.084 24.1787 109.703 24.1598C109.299 24.1399 108.895 24.1554 108.439 24.1555Z" fill="#191C66"/>
<path d="M88.3167 36.6315C88.2531 36.8125 88.1896 36.942 88.126 37.0715C88.0481 36.9686 87.904 36.8667 87.9024 36.7626C87.8861 35.6553 87.8923 34.5477 87.8923 33.4101C88.5189 33.4101 89.0886 33.3807 89.6538 33.4184C90.2161 33.4559 90.6336 33.738 90.7667 34.3249C90.8992 34.9092 90.7366 35.3837 90.2106 35.7078C90.1505 35.7449 90.092 35.7847 90.0079 35.8394C90.2816 36.2345 90.5398 36.6072 90.7979 36.9799C90.7661 37.0248 90.7343 37.0697 90.7025 37.1146C90.537 36.9996 90.2926 36.9214 90.2192 36.7636C89.8412 35.9508 89.2201 35.7307 88.3166 35.9688C88.3166 36.1402 88.3166 36.3601 88.3167 36.6315ZM90.3927 34.4659C90.0964 33.7368 89.6835 33.5973 88.3487 33.7827C88.3487 34.3629 88.3487 34.945 88.3487 35.5529C88.6106 35.5529 88.8382 35.5537 89.0658 35.5525C89.1995 35.5518 89.3336 35.5547 89.4665 35.5442C90.1076 35.4938 90.3531 35.2323 90.3927 34.4659Z" fill="#2B2C5D"/>
<path d="M105.846 35.862C105.846 35.0035 105.846 34.2018 105.846 33.4002C105.905 33.3731 105.964 33.346 106.023 33.3189C106.772 34.095 107.104 35.1685 107.779 36.0273C108.403 35.1603 108.793 34.1409 109.463 33.3142C109.533 33.338 109.604 33.3618 109.674 33.3856C109.674 33.947 109.674 34.5084 109.674 35.0698C109.674 35.5886 109.689 36.1082 109.665 36.6259C109.658 36.776 109.541 36.9211 109.475 37.0685C109.42 36.9287 109.322 36.7898 109.319 36.649C109.304 35.8807 109.312 35.112 109.226 34.2917C108.764 35.0729 108.302 35.8541 107.768 36.7589C107.231 35.8617 106.769 35.0895 106.308 34.3174C106.276 34.3251 106.244 34.3329 106.212 34.3407C106.212 35.1356 106.219 35.9307 106.204 36.7253C106.201 36.8419 106.089 36.9564 106.028 37.0719C105.967 36.9566 105.866 36.8454 105.854 36.7252C105.827 36.4588 105.846 36.1879 105.846 35.862Z" fill="#2B2C5D"/>
<path d="M64.1628 36.1279C64.3825 36.4367 64.5766 36.7135 64.7707 36.9902C64.7307 37.0361 64.6906 37.0819 64.6505 37.1278C64.4772 36.9871 64.2326 36.8816 64.1429 36.6997C63.7535 35.9101 63.1374 35.7411 62.3476 35.9517C62.0615 36.2654 62.5423 36.8511 61.9133 37.1445C61.9133 35.8472 61.9133 34.6358 61.9133 33.4288C62.5417 33.4288 63.154 33.3878 63.758 33.4413C64.2771 33.4873 64.6491 33.8193 64.7506 34.3426C64.851 34.8603 64.7439 35.3519 64.253 35.6478C64.0302 35.7821 63.9201 35.8788 64.1628 36.1279ZM62.6501 35.5532C62.9931 35.5403 63.3413 35.5599 63.6778 35.5065C64.1364 35.4338 64.3813 35.1008 64.3795 34.6604C64.3776 34.2035 64.1538 33.832 63.6508 33.7868C63.2054 33.7468 62.7536 33.7784 62.2578 33.7784C62.2578 34.3054 62.2435 34.7994 62.2706 35.2911C62.2756 35.383 62.4468 35.4657 62.6501 35.5532Z" fill="#2B2C5D"/>
<path d="M82.1774 36.0984C82.1776 36.3241 82.1776 36.4932 82.1776 36.7198C82.8348 36.7198 83.4433 36.7096 84.0508 36.729C84.1617 36.7325 84.2689 36.8561 84.3778 36.9243C84.2712 36.9745 84.1654 37.0664 84.0581 37.0681C83.294 37.0807 82.5297 37.0748 81.7483 37.0748C81.7483 35.8314 81.7483 34.6441 81.7483 33.3702C82.5123 33.3702 83.2712 33.3649 84.0298 33.3778C84.1108 33.3792 84.1901 33.4866 84.2702 33.5447C84.176 33.6064 84.0833 33.7187 83.9874 33.7215C83.4124 33.7383 82.8367 33.7298 82.2189 33.7298C82.2189 34.1675 82.2189 34.5775 82.2189 35.028C82.8217 35.028 83.4104 35.028 84.0048 35.028C83.9499 35.3766 83.9499 35.3766 83.258 35.3767C82.9171 35.3767 82.5762 35.3767 82.1773 35.3767C82.1773 35.6311 82.1773 35.8364 82.1774 36.0984Z" fill="#2B2C5D"/>
<path d="M122.447 37.0332C122.322 36.8918 122.209 36.7778 122.146 36.6413C121.776 35.8476 121.141 35.7635 120.393 35.9592C120.22 36.8221 120.15 37.0129 119.963 37.0551C119.963 35.8448 119.963 34.6411 119.963 33.3503C120.605 33.3796 121.237 33.3678 121.857 33.4492C122.376 33.5174 122.711 33.8693 122.812 34.3977C122.925 34.9962 122.696 35.4125 122.015 35.8318C122.156 36.0318 122.295 36.2301 122.434 36.4283C122.564 36.613 122.694 36.7975 122.871 37.0503C122.69 37.0503 122.587 37.0503 122.447 37.0332ZM120.314 34.5524C120.314 34.8723 120.314 35.1922 120.314 35.584C121.044 35.4517 121.834 35.8434 122.283 35.0979C122.43 34.8544 122.394 34.3087 122.213 34.0972C121.715 33.515 120.995 33.7664 120.314 33.7353C120.314 34.0255 120.314 34.2351 120.314 34.5524Z" fill="#2B2C5D"/>
<path d="M71.7685 35.9109C71.1901 37.0209 70.1798 37.3968 69.1073 36.9343C68.1902 36.5387 67.7642 35.5569 68.0967 34.6048C68.4421 33.6157 69.4334 33.1325 70.5155 33.4258C71.502 33.6933 72.0439 34.61 71.8275 35.6441C71.8118 35.719 71.8009 35.795 71.7685 35.9109ZM68.8031 36.2733C69.4903 36.8501 70.1959 36.9181 70.8403 36.4695C71.4027 36.078 71.618 35.3397 71.3765 34.6798C71.1516 34.0656 70.6769 33.7644 70.0691 33.709C69.4577 33.6534 68.9335 33.8903 68.6113 34.4391C68.2524 35.0504 68.3236 35.648 68.8031 36.2733Z" fill="#2B2C5D"/>
<path d="M58.4167 34.6996C58.2132 35.5487 57.8915 35.8356 57.0741 35.8948C56.7143 35.9209 56.3511 35.8992 55.8976 35.8992C55.8976 36.2319 55.9138 36.5106 55.889 36.7855C55.8799 36.8853 55.7725 36.9762 55.71 37.0712C55.6484 36.976 55.5343 36.8815 55.5332 36.7856C55.5207 35.6759 55.5252 34.5659 55.5252 33.3481C56.2132 33.3843 56.8834 33.3527 57.5251 33.473C58.1065 33.582 58.3988 34.0479 58.4167 34.6996ZM55.895 34.9873C55.9026 35.1552 55.9102 35.3232 55.9187 35.5128C56.0402 35.5249 56.1319 35.5413 56.2238 35.5419C56.5117 35.5436 56.8006 35.5537 57.0874 35.5345C57.6756 35.495 57.9608 35.2182 57.9778 34.6962C57.997 34.1041 57.7667 33.8263 57.1377 33.7668C56.7444 33.7296 56.3447 33.7599 55.8949 33.7599C55.8949 34.1543 55.8949 34.515 55.895 34.9873Z" fill="#2B2C5D"/>
<path d="M75.3852 33.82C75.4912 33.6345 75.5916 33.3963 75.7041 33.3904C76.1989 33.3646 76.7012 33.3727 77.1934 33.4308C77.8999 33.5141 78.2906 33.9916 78.2783 34.6748C78.2669 35.313 77.8571 35.7691 77.1864 35.8693C76.9601 35.903 76.7286 35.9059 76.4992 35.9131C76.2747 35.9202 76.0499 35.9146 75.8405 35.9146C75.6704 36.8972 75.6384 36.9929 75.385 37.0901C75.385 35.9977 75.385 34.936 75.3852 33.82ZM76.9015 35.5434C77.4475 35.5223 77.8306 35.2875 77.87 34.7068C77.8997 34.2684 77.7176 33.8857 77.2555 33.8052C76.7792 33.7223 76.2854 33.7402 75.7951 33.7138C75.7951 34.3741 75.7951 34.9382 75.7951 35.5442C76.1517 35.5442 76.4743 35.5442 76.9015 35.5434Z" fill="#2B2C5D"/>
<path d="M116.135 35.8508C116.316 36.2538 116.484 36.615 116.652 36.9762C116.603 37.0223 116.555 37.0683 116.507 37.1143C116.369 36.9689 116.162 36.8456 116.107 36.6738C115.954 36.1935 115.674 36.0044 115.177 36.0882C114.971 36.1229 114.75 36.1208 114.544 36.0886C113.997 36.0034 113.634 36.1636 113.471 36.7339C113.428 36.8872 113.23 36.9965 113.102 37.126C113.053 37.0835 113.004 37.0409 112.955 36.9984C113.475 35.8548 113.984 34.7059 114.522 33.5708C114.678 33.2413 114.952 33.2891 115.133 33.6689C115.471 34.3782 115.793 35.0952 116.135 35.8508ZM115.21 35.753C115.348 35.7424 115.486 35.7318 115.663 35.7182C115.364 35.0599 115.094 34.4622 114.797 33.8072C114.499 34.4845 114.228 35.0983 113.94 35.7531C114.382 35.7531 114.745 35.7531 115.21 35.753Z" fill="#2B2C5D"/>
<path d="M95.1234 33.3616C95.6016 33.3624 96.0235 33.3522 96.4439 33.3737C96.5429 33.3788 96.6365 33.4905 96.7326 33.5532C96.6368 33.6159 96.5447 33.7247 96.4447 33.7326C96.1407 33.7564 95.8337 33.7412 95.4268 33.7412C95.4268 34.6152 95.4478 35.4682 95.4139 36.319C95.4039 36.5704 95.6498 36.9487 95.1822 37.0759C95.1234 36.8225 95.0205 36.5704 95.014 36.3157C94.9925 35.4771 95.0059 34.6377 95.0059 33.7419C94.6552 33.7419 94.3528 33.7604 94.0547 33.7325C93.9405 33.7218 93.8363 33.6051 93.7275 33.5367C93.8291 33.4795 93.928 33.3794 94.0327 33.3728C94.3762 33.351 94.7218 33.3632 95.1234 33.3616Z" fill="#244082"/>
<path d="M128.626 33.3911C128.8 33.6941 128.641 33.7451 128.408 33.743C128.105 33.7403 127.803 33.7423 127.461 33.7423C127.461 34.8627 127.461 35.9325 127.461 37.0134C127.076 37.1611 127.01 36.9885 127.013 36.6814C127.022 35.726 127.016 34.7705 127.016 33.7426C126.704 33.7426 126.44 33.7669 126.183 33.7335C126.026 33.7133 125.882 33.604 125.732 33.5347C125.875 33.4777 126.017 33.3741 126.161 33.3716C126.967 33.3578 127.773 33.3685 128.626 33.3911Z" fill="#244082"/>
<path d="M100.846 35.131C100.999 35.434 101.1 35.3292 101.208 35.1487C101.503 34.6567 101.793 34.161 102.108 33.6818C102.202 33.538 102.372 33.4435 102.507 33.3264C102.554 33.3688 102.6 33.4112 102.647 33.4536C102.336 33.9643 102.046 34.4893 101.708 34.9817C101.36 35.4888 101.145 36.01 101.217 36.6416C101.232 36.7741 101.081 36.9254 101.007 37.0681C100.941 36.9352 100.798 36.7875 100.821 36.6719C100.987 35.8131 100.439 35.2224 100.066 34.5675C99.8518 34.1908 99.614 33.8274 99.3811 33.4489C99.8179 33.324 99.5704 33.0545 100.846 35.131Z" fill="#2B2C5D"/>
</svg>
